HIERARCHY
ROOT Pelvis
{
	OFFSET 0.000000 0.000000 0.000000
	CHANNELS 6 Xposition Yposition Zposition Xrotation Yrotation Zrotation
	JOINT LeftUpLeg_virtual
	{
		OFFSET 0.000000 0.000000 0.000000
		CHANNELS 3 Xrotation Yrotation Zrotation
		JOINT LeftUpLeg
		{
			OFFSET 8.479700 -4.795502 -0.379100
			CHANNELS 3 Xrotation Yrotation Zrotation
			JOINT LeftLeg
			{
				OFFSET 0.024144 -32.555107 0.112900
				CHANNELS 3 Xrotation Yrotation Zrotation
				JOINT LeftFoot
				{
					OFFSET -0.024144 -32.638630 -3.012600
					CHANNELS 3 Xrotation Yrotation Zrotation
					JOINT LeftToeBase
					{
						OFFSET 0.970200 -13.225400 11.864200
						CHANNELS 3 Xrotation Yrotation Zrotation
						End Site
						{
							OFFSET 0 0 0
						}
					}
				}
			}
		}
	}
	JOINT RightUpLeg_virtual
	{
		OFFSET 0.000000 0.000000 0.000000
		CHANNELS 3 Xrotation Yrotation Zrotation
		JOINT RightUpLeg
		{
			OFFSET -8.479700 -4.795502 -0.379100
			CHANNELS 3 Xrotation Yrotation Zrotation
			JOINT RightLeg
			{
				OFFSET -0.023144 -32.555092 0.112900
				CHANNELS 3 Xrotation Yrotation Zrotation
				JOINT RightFoot
				{
					OFFSET 0.023144 -32.638641 -3.012700
					CHANNELS 3 Xrotation Yrotation Zrotation
					JOINT RightToeBase
					{
						OFFSET -0.970200 -13.225400 11.864200
						CHANNELS 3 Xrotation Yrotation Zrotation
						End Site
						{
							OFFSET 0 0 0
						}
					}
				}
			}
		}
	}
	JOINT Hips_virtual
	{
		OFFSET 0.000000 0.000000 0.000000
		CHANNELS 3 Xrotation Yrotation Zrotation
		JOINT Hips
		{
			OFFSET -0.000000 -0.000000 -0.000000
			CHANNELS 3 Xrotation Yrotation Zrotation
			JOINT Spine
			{
				OFFSET 0.000000 7.722000 1.166200
				CHANNELS 3 Xrotation Yrotation Zrotation
				JOINT Spine1
				{
					OFFSET 0.000000 12.024101 0.248800
					CHANNELS 3 Xrotation Yrotation Zrotation
					JOINT Spine2
					{
						OFFSET 0.000000 11.502998 -0.491200
						CHANNELS 3 Xrotation Yrotation Zrotation
						JOINT Neck_virtual
						{
							OFFSET 0.000000 0.000000 0.000000
							CHANNELS 3 Xrotation Yrotation Zrotation
							JOINT Neck
							{
								OFFSET 0.000000 18.430702 -3.123100
								CHANNELS 3 Xrotation Yrotation Zrotation
								JOINT Head
								{
									OFFSET 0.000000 9.051102 1.034000
									CHANNELS 3 Xrotation Yrotation Zrotation
									End Site
									{
										OFFSET 0 0 0
									}
								}
							}
						}
						JOINT LeftShoulder_virtual
						{
							OFFSET 0.000000 0.000000 0.000000
							CHANNELS 3 Xrotation Yrotation Zrotation
							JOINT LeftShoulder
							{
								OFFSET 6.197800 13.665199 -4.064700
								CHANNELS 3 Xrotation Yrotation Zrotation
								JOINT LeftArm
								{
									OFFSET 7.778100 -0.187103 -1.709300
									CHANNELS 3 Xrotation Yrotation Zrotation
									JOINT LeftForeArm
									{
										OFFSET 22.049376 0.000000 0.000000
										CHANNELS 3 Xrotation Yrotation Zrotation
										JOINT LeftHand
										{
											OFFSET 23.009392 0.000000 0.000000
											CHANNELS 3 Xrotation Yrotation Zrotation
											End Site
											{
												OFFSET 0 0 0
											}
										}
									}
								}
							}
						}
						JOINT RightShoulder_virtual
						{
							OFFSET 0.000000 0.000000 0.000000
							CHANNELS 3 Xrotation Yrotation Zrotation
							JOINT RightShoulder
							{
								OFFSET -6.197800 13.665199 -4.064700
								CHANNELS 3 Xrotation Yrotation Zrotation
								JOINT RightArm
								{
									OFFSET -7.778100 -0.187103 -1.709300
									CHANNELS 3 Xrotation Yrotation Zrotation
									JOINT RightForeArm
									{
										OFFSET -22.049376 0.000000 0.000000
										CHANNELS 3 Xrotation Yrotation Zrotation
										JOINT RightHand
										{
											OFFSET -23.009392 0.000000 0.000000
											CHANNELS 3 Xrotation Yrotation Zrotation
											End Site
											{
												OFFSET 0 0 0
											}
										}
									}
								}
							}
						}
					}
				}
			}
		}
	}
}
MOTION
Frames: 8
Frame Time: 0.03333333
5.935004 82.490753 -0.065994 0.000000 0.000000 0.000000 0.023818 -13.963484 -2.171015 -15.956017 21.791292 8.346366 22.443788 9.972916 5.321952 -7.497024 7.437886 -6.969315 0.000000 0.000000 0.000000 0.023818 -13.963484 -2.171015 -12.562912 -18.850142 -8.283945 9.631613 9.863901 -2.863230 0.702790 8.038394 9.415610 0.000000 0.000000 0.000000 0.023818 -13.963484 -2.171015 0.000000 0.000000 0.000000 1.260655 -1.105182 -1.992346 0.247989 -0.899453 -0.732541 0.000000 0.000000 0.000000 0.243785 -0.917160 -0.703879 0.749591 2.295823 1.468098 0.000000 0.000000 0.000000 0.243785 -0.917160 -0.703879 -1.488744 9.670791 -3.001457 40.860469 -60.704850 -25.987231 0.000008 -22.817335 0.000006 0.000000 0.000000 0.000000 0.243785 -0.917160 -0.703879 4.389556 5.095596 -14.946394 -41.397865 -19.780016 36.650829 -179.999855 72.302299 179.999855 0.000000 0.000000 0.000000 
5.793922 82.498558 -0.063625 0.000000 0.000000 0.000000 0.038769 -13.777136 -2.174435 -15.968263 21.707842 8.455173 22.361792 9.972153 5.308322 -7.389336 7.336871 -7.061336 0.000000 0.000000 0.000000 0.038769 -13.777136 -2.174435 -12.564083 -18.722689 -8.247542 9.873447 9.863613 -2.726908 0.529298 7.709857 9.236815 0.000000 0.000000 0.000000 0.038769 -13.777136 -2.174435 0.000000 0.000000 0.000000 1.263609 -1.092150 -1.908831 0.244306 -0.890373 -0.689607 0.000000 0.000000 0.000000 0.239954 -0.906840 -0.661084 0.708955 2.285038 1.414968 0.000000 0.000000 0.000000 0.239954 -0.906840 -0.661084 -1.481852 9.673274 -3.066328 40.859633 -60.864608 -25.969271 -0.000020 -22.750788 0.000005 0.000000 0.000000 0.000000 0.239954 -0.906840 -0.661084 4.393043 5.145392 -14.614276 -40.060036 -18.545331 36.976909 180.000005 72.805814 179.999991 0.000000 0.000000 0.000000 
5.647784 82.506828 -0.061563 0.000000 0.000000 0.000000 0.047772 -13.592643 -2.183368 -15.973596 21.611065 8.577412 22.280302 9.971619 5.280739 -7.281109 7.238114 -7.153342 0.000000 0.000000 0.000000 0.047772 -13.592643 -2.183368 -12.548809 -18.612727 -8.185646 10.099657 9.863838 -2.619638 0.360260 7.395558 9.067074 0.000000 0.000000 0.000000 0.047772 -13.592643 -2.183368 0.000000 -0.000001 0.000000 1.268607 -1.083423 -1.826019 0.241808 -0.884486 -0.647218 0.000000 0.000000 0.000000 0.237303 -0.899711 -0.618708 0.663437 2.273471 1.368833 0.000000 0.000000 0.000000 0.237303 -0.899711 -0.618708 -1.475812 9.676775 -3.126218 40.863471 -61.027658 -25.944144 0.000001 -22.683946 0.000012 0.000000 0.000000 0.000000 0.237303 -0.899711 -0.618708 4.393938 5.191683 -14.254584 -38.714800 -17.278386 37.271871 -179.999950 73.320387 179.999937 0.000000 0.000000 0.000000 
5.497384 82.515793 -0.060104 0.000000 0.000000 0.000000 0.046259 -13.410190 -2.199330 -15.968475 21.503947 8.708733 22.197536 9.970983 5.250293 -7.168720 7.138754 -7.250224 0.000000 0.000000 0.000000 0.046259 -13.410190 -2.199330 -12.510367 -18.508453 -8.100377 10.308220 9.864118 -2.532911 0.197186 7.085176 8.903731 0.000000 0.000000 0.000000 0.046259 -13.410190 -2.199330 0.000000 0.000000 0.000000 1.275388 -1.079239 -1.744869 0.240360 -0.881941 -0.605872 0.000000 0.000000 0.000000 0.235707 -0.895956 -0.577243 0.611920 2.260317 1.331698 0.000000 0.000000 0.000000 0.235707 -0.895956 -0.577243 -1.470858 9.679989 -3.176227 40.866149 -61.194895 -25.918671 0.000008 -22.613870 -0.000001 0.000000 0.000000 0.000000 0.235707 -0.895956 -0.577243 4.391627 5.233457 -13.862316 -37.354988 -15.971187 37.525930 -179.999950 73.846544 179.999937 0.000000 0.000000 0.000000 
5.343736 82.525711 -0.059362 0.000000 0.000000 0.000000 0.032455 -13.227676 -2.220883 -15.946837 21.386608 8.839907 22.105438 9.970120 5.226529 -7.048375 7.039128 -7.355263 0.000000 0.000000 0.000000 0.032455 -13.227676 -2.220883 -12.446454 -18.402860 -7.999832 10.496589 9.864461 -2.454242 0.042860 6.771829 8.742085 0.000000 0.000000 0.000000 0.032455 -13.227676 -2.220883 0.000000 0.000000 0.000000 1.283641 -1.079605 -1.666393 0.239822 -0.882717 -0.566063 0.000000 0.000000 0.000000 0.235036 -0.895547 -0.537205 0.553539 2.244815 1.305166 0.000000 0.000000 0.000000 0.235036 -0.895547 -0.537205 -1.467161 9.681589 -3.211859 40.861381 -61.366695 -25.900141 0.000008 -22.538081 0.000011 0.000000 0.000000 0.000000 0.235036 -0.895547 -0.537205 4.385647 5.270029 -13.433543 -35.973998 -14.618131 37.730402 -179.999827 74.386272 179.999814 0.000000 0.000000 0.000000 
5.187630 82.536499 -0.059196 0.000000 0.000000 0.000000 0.008837 -13.040787 -2.243872 -15.906744 21.254584 8.960443 21.999271 9.969067 5.215130 -6.918974 6.942735 -7.469234 0.000000 0.000000 0.000000 0.008837 -13.040787 -2.243872 -12.365438 -18.295638 -7.896504 10.673076 9.864841 -2.372363 -0.107759 6.453697 8.577585 0.000000 0.000000 0.000000 0.008837 -13.040787 -2.243872 0.000000 0.000001 0.000000 1.292998 -1.084337 -1.591293 0.240022 -0.886622 -0.528225 0.000000 0.000000 0.000000 0.235126 -0.898339 -0.499011 0.487741 2.226396 1.290289 0.000000 0.000000 0.000000 0.235126 -0.898339 -0.499011 -1.464800 9.680258 -3.229542 40.843005 -61.543064 -25.895528 -0.000015 -22.454363 -0.000018 0.000000 0.000000 0.000000 0.235126 -0.898339 -0.499011 4.375740 5.300993 -12.965834 -34.566242 -13.216442 37.878624 -179.999991 74.942557 179.999991 0.000000 0.000000 0.000000 
5.029533 82.548012 -0.059233 0.000000 0.000000 0.000000 -0.018176 -12.843486 -2.263032 -15.850202 21.100331 9.061844 21.875242 9.967971 5.216260 -6.778714 6.854358 -7.590403 0.000000 0.000000 0.000000 -0.018176 -12.843486 -2.263032 -12.278942 -18.192806 -7.801130 10.844102 9.865269 -2.281048 -0.257887 6.132666 8.407319 0.000000 0.000000 0.000000 -0.018176 -12.843486 -2.263032 0.000000 0.000000 0.000000 1.303017 -1.092993 -1.520002 0.240734 -0.893317 -0.492671 0.000000 0.000000 0.000000 0.235762 -0.903968 -0.463007 0.414344 2.204616 1.287391 0.000000 0.000000 0.000000 0.235762 -0.903968 -0.463007 -1.463775 9.674975 -3.227007 40.806395 -61.723395 -25.910210 -0.000021 -22.361305 0.000001 0.000000 0.000000 0.000000 0.235762 -0.903968 -0.463007 4.361889 5.326276 -12.458679 -33.127462 -11.766435 37.966774 -179.999937 75.519694 179.999923 0.000000 0.000000 0.000000 
4.869400 82.559776 -0.058998 0.000000 0.000000 0.000000 -0.040725 -12.628984 -2.274371 -15.784361 20.916834 9.141034 21.734659 9.966728 5.226278 -6.627362 6.776437 -7.715336 0.000000 0.000000 0.000000 -0.040725 -12.628984 -2.274371 -12.200169 -18.102795 -7.719821 11.019055 9.866032 -2.180343 -0.413075 5.811014 8.231119 0.000000 0.000000 0.000000 -0.040725 -12.628984 -2.274371 0.000000 -0.000001 0.000000 1.313150 -1.104967 -1.452784 0.241664 -0.902324 -0.459576 0.000000 0.000000 0.000000 0.236648 -0.911981 -0.429383 0.333539 2.179393 1.295970 0.000000 0.000000 0.000000 0.236648 -0.911981 -0.429383 -1.463986 9.665162 -3.203664 40.749120 -61.906690 -25.947168 0.000001 -22.258098 0.000041 0.000000 0.000000 0.000000 0.236648 -0.911981 -0.429383 4.344326 5.346197 -11.913675 -31.655003 -10.271308 37.994174 179.999937 76.122745 -179.999937 0.000000 0.000000 0.000000 
